<!-- Generated by IcoMoon.io -->
<svg version="1.1" xmlns="http://www.w3.org/2000/svg" width="17" height="32" viewBox="0 0 17 32">
<path fill="#fff" stroke-linejoin="miter" stroke-linecap="butt" stroke-miterlimit="4" stroke-width="1.4545" stroke="#000" d="M16.349 15.604c0.052 0.050 0.095 0.11 0.124 0.177l0.001 0.004c0.028 0.063 0.044 0.137 0.044 0.215s-0.016 0.152-0.046 0.219l0.001-0.003c-0.031 0.070-0.073 0.129-0.125 0.179l-0 0-14.186 13.517c-0.098 0.093-0.23 0.15-0.376 0.15-0.144 0-0.274-0.056-0.372-0.146l-0.022-0.021c-0.085-0.081-0.138-0.194-0.138-0.321s0.053-0.24 0.138-0.321l0-0h0.003l13.911-13.249-13.911-13.254c-0.085-0.081-0.139-0.195-0.139-0.322s0.053-0.241 0.138-0.322l0.021-0.021c0.097-0.091 0.228-0.146 0.371-0.146 0.146 0 0.278 0.057 0.376 0.151l-0-0 14.186 13.516z"></path>
</svg>
