<!-- Generated by IcoMoon.io -->
<svg version="1.1" xmlns="http://www.w3.org/2000/svg" width="17" height="32" viewBox="0 0 17 32">
<path fill="#fff" stroke-linejoin="miter" stroke-linecap="butt" stroke-miterlimit="4" stroke-width="1.4545" stroke="#000" d="M1.105 16.396c-0.052-0.050-0.095-0.11-0.124-0.177l-0.001-0.004c-0.028-0.063-0.044-0.137-0.044-0.215s0.016-0.152 0.046-0.219l-0.001 0.004c0.031-0.070 0.073-0.129 0.125-0.179l0-0 14.186-13.517c0.098-0.093 0.23-0.15 0.376-0.15 0.144 0 0.274 0.056 0.372 0.146l0.021 0.021c0.084 0.081 0.137 0.195 0.137 0.322 0 0.062-0.013 0.122-0.036 0.176l0.001-0.003c-0.025 0.057-0.059 0.106-0.102 0.147l-0 0h-0.001l-13.911 13.249 13.911 13.254c0.085 0.082 0.137 0.196 0.137 0.323 0 0.063-0.013 0.123-0.037 0.178l0.001-0.003c-0.025 0.057-0.059 0.106-0.102 0.147l-0.021 0.021c-0.097 0.090-0.228 0.146-0.371 0.146-0.146 0-0.278-0.057-0.376-0.151l0 0-14.186-13.516z"></path>
</svg>
